<svg xmlns="http://www.w3.org/2000/svg" xmlns:xlink="http://www.w3.org/1999/xlink" viewBox="0 0 24 24" id="user">
  <defs>
    <linearGradient id="a" x1="7.388" x2="24.835" y1="5.933" y2="6.188" gradientUnits="userSpaceOnUse">
      <stop offset="0" stop-color="#96369f"></stop>
      <stop offset="1" stop-color="#01b3ed"></stop>
    </linearGradient>
    <linearGradient xlink:href="#a" id="b" x1="7.212" x2="24.659" y1="17.93" y2="18.185"></linearGradient>
  </defs>
  <path fill="url(#a)" d="M18,6a6,6,0,1,0-6,6A6.006,6.006,0,0,0,18,6Zm-6,4a4,4,0,1,1,4-4A4,4,0,0,1,12,10Z"></path>
  <path fill="url(#b)" d="M3.051,18.446a9.944,9.944,0,0,0,17.845,0,1.006,1.006,0,0,0,0-.892,9.944,9.944,0,0,0-17.845,0A1,1,0,0,0,3.051,18.446ZM12,14a7.9,7.9,0,0,1,6.866,4A7.938,7.938,0,0,1,5.081,18,7.948,7.948,0,0,1,12,14Z"></path>
</svg>
